<svg xmlns="http://www.w3.org/2000/svg" xmlns:xlink="http://www.w3.org/1999/xlink" width="900" zoomAndPan="magnify" viewBox="0 0 675 187.499995" height="250" preserveAspectRatio="xMidYMid meet" version="1.2"><defs><clipPath id="174117a287"><path d="M 0.898438 0 L 674.101562 0 L 674.101562 187 L 0.898438 187 Z M 0.898438 0 "/></clipPath></defs><g id="44093171d1"><g clip-rule="nonzero" clip-path="url(#174117a287)"><path style=" stroke:none;fill-rule:nonzero;fill:#ffffff;fill-opacity:1;" d="M 0.898438 0 L 674.101562 0 L 674.101562 187 L 0.898438 187 Z M 0.898438 0 "/><path style=" stroke:none;fill-rule:nonzero;fill:#ffffff;fill-opacity:1;" d="M 0.898438 0 L 674.101562 0 L 674.101562 187 L 0.898438 187 Z M 0.898438 0 "/></g><g style="fill:#00bf63;fill-opacity:1;"><g transform="translate(4.976582, 126.332703)"><path style="stroke:none" d="M 35.421875 -85.953125 C 44.773438 -85.953125 52.085938 -83.613281 57.359375 -78.9375 C 62.628906 -74.257812 65.265625 -67.71875 65.265625 -59.3125 C 65.265625 -54.476562 64.289062 -49.960938 62.34375 -45.765625 C 60.40625 -41.566406 57.273438 -38.160156 52.953125 -35.546875 C 48.640625 -32.929688 43.191406 -31.625 36.609375 -31.625 L 23.890625 -31.625 L 23.890625 0 L 12.359375 0 L 12.359375 -85.953125 Z M 36.609375 -42.796875 C 40.734375 -42.796875 44.082031 -43.664062 46.65625 -45.40625 C 49.226562 -47.15625 51.066406 -49.273438 52.171875 -51.765625 C 53.285156 -54.265625 53.84375 -56.703125 53.84375 -59.078125 C 53.84375 -63.203125 52.492188 -66.867188 49.796875 -70.078125 C 47.109375 -73.285156 42.910156 -74.890625 37.203125 -74.890625 L 23.890625 -74.890625 L 23.890625 -42.796875 Z M 36.609375 -42.796875 "/></g></g><g style="fill:#00bf63;fill-opacity:1;"><g transform="translate(75.699877, 126.332703)"><path style="stroke:none" d="M 59.671875 0 L 39.46875 -31.734375 C 38.832031 -31.660156 37.878906 -31.625 36.609375 -31.625 L 23.890625 -31.625 L 23.890625 0 L 12.359375 0 L 12.359375 -85.953125 L 35.3125 -85.953125 C 41.175781 -85.953125 46.40625 -84.921875 51 -82.859375 C 55.59375 -80.796875 59.195312 -77.765625 61.8125 -73.765625 C 64.425781 -69.765625 65.734375 -64.945312 65.734375 -59.3125 C 65.734375 -54.007812 64.5625 -49.140625 62.21875 -44.703125 C 59.882812 -40.265625 56.300781 -36.894531 51.46875 -34.59375 L 73.109375 0 Z M 36.375 -42.796875 C 42.550781 -42.796875 47.003906 -44.421875 49.734375 -47.671875 C 52.472656 -50.921875 53.84375 -54.644531 53.84375 -58.84375 C 53.84375 -61.375 53.269531 -63.867188 52.125 -66.328125 C 50.976562 -68.785156 49.15625 -70.828125 46.65625 -72.453125 C 44.15625 -74.078125 41.003906 -74.890625 37.203125 -74.890625 L 23.890625 -74.890625 L 23.890625 -42.796875 Z M 36.375 -42.796875 "/></g></g><g style="fill:#00bf63;fill-opacity:1;"><g transform="translate(152.247286, 126.332703)"><path style="stroke:none" d="M 7.015625 -42.90625 C 7.015625 -50.757812 8.992188 -58.050781 12.953125 -64.78125 C 16.921875 -71.519531 22.25 -76.890625 28.9375 -80.890625 C 35.632812 -84.890625 42.945312 -86.890625 50.875 -86.890625 C 58.71875 -86.890625 66.007812 -84.890625 72.75 -80.890625 C 79.488281 -76.890625 84.859375 -71.519531 88.859375 -64.78125 C 92.859375 -58.050781 94.859375 -50.757812 94.859375 -42.90625 C 94.859375 -34.988281 92.875 -27.660156 88.90625 -20.921875 C 84.945312 -14.179688 79.578125 -8.847656 72.796875 -4.921875 C 66.023438 -1.003906 58.71875 0.953125 50.875 0.953125 C 42.945312 0.953125 35.613281 -0.988281 28.875 -4.875 C 22.144531 -8.757812 16.816406 -14.046875 12.890625 -20.734375 C 8.972656 -27.429688 7.015625 -34.820312 7.015625 -42.90625 Z M 18.90625 -42.796875 C 18.90625 -36.929688 20.328125 -31.5 23.171875 -26.5 C 26.023438 -21.507812 29.925781 -17.546875 34.875 -14.609375 C 39.832031 -11.679688 45.242188 -10.21875 51.109375 -10.21875 C 56.972656 -10.21875 62.34375 -11.664062 67.21875 -14.5625 C 72.09375 -17.457031 75.9375 -21.421875 78.75 -26.453125 C 81.5625 -31.484375 82.96875 -36.96875 82.96875 -42.90625 C 82.96875 -48.851562 81.539062 -54.363281 78.6875 -59.4375 C 75.84375 -64.507812 71.960938 -68.507812 67.046875 -71.4375 C 62.128906 -74.375 56.738281 -75.84375 50.875 -75.84375 C 45.007812 -75.84375 39.617188 -74.351562 34.703125 -71.375 C 29.796875 -68.40625 25.9375 -64.382812 23.125 -59.3125 C 20.3125 -54.238281 18.90625 -48.734375 18.90625 -42.796875 Z M 18.90625 -42.796875 "/></g></g><g style="fill:#008645;fill-opacity:1;"><g transform="translate(254.120774, 126.332703)"><path style="stroke:none" d="M 23.78125 -47.078125 L 25.203125 -49.328125 L 60.390625 -85.953125 L 75.25 -85.953125 L 39.703125 -49.09375 L 77.265625 0 L 62.640625 0 L 31.265625 -41.71875 L 24.015625 -34.71875 L 24.125 0 L 12.359375 0 L 12.359375 -85.953125 L 24.125 -85.953125 L 24.125 -51.359375 Z M 23.78125 -47.078125 "/></g></g><g style="fill:#008645;fill-opacity:1;"><g transform="translate(334.947402, 126.332703)"><path style="stroke:none" d="M 59.671875 0 L 39.46875 -31.734375 C 38.832031 -31.660156 37.878906 -31.625 36.609375 -31.625 L 23.890625 -31.625 L 23.890625 0 L 12.359375 0 L 12.359375 -85.953125 L 35.3125 -85.953125 C 41.175781 -85.953125 46.40625 -84.921875 51 -82.859375 C 55.59375 -80.796875 59.195312 -77.765625 61.8125 -73.765625 C 64.425781 -69.765625 65.734375 -64.945312 65.734375 -59.3125 C 65.734375 -54.007812 64.5625 -49.140625 62.21875 -44.703125 C 59.882812 -40.265625 56.300781 -36.894531 51.46875 -34.59375 L 73.109375 0 Z M 36.375 -42.796875 C 42.550781 -42.796875 47.003906 -44.421875 49.734375 -47.671875 C 52.472656 -50.921875 53.84375 -54.644531 53.84375 -58.84375 C 53.84375 -61.375 53.269531 -63.867188 52.125 -66.328125 C 50.976562 -68.785156 49.15625 -70.828125 46.65625 -72.453125 C 44.15625 -74.078125 41.003906 -74.890625 37.203125 -74.890625 L 23.890625 -74.890625 L 23.890625 -42.796875 Z M 36.375 -42.796875 "/></g></g><g style="fill:#008645;fill-opacity:1;"><g transform="translate(413.396783, 126.332703)"><path style="stroke:none" d="M 68.234375 -85.953125 L 68.234375 -74.890625 L 23.890625 -74.890625 L 23.890625 -48.734375 L 63.484375 -48.734375 L 63.484375 -37.6875 L 23.890625 -37.6875 L 23.890625 -11.171875 L 69.90625 -11.171875 L 69.90625 0 L 12.359375 0 L 12.359375 -85.953125 Z M 68.234375 -85.953125 "/></g></g><g style="fill:#008645;fill-opacity:1;"><g transform="translate(491.01412, 126.332703)"><path style="stroke:none" d="M 68.234375 -85.953125 L 68.234375 -74.890625 L 23.890625 -74.890625 L 23.890625 -48.734375 L 63.484375 -48.734375 L 63.484375 -37.6875 L 23.890625 -37.6875 L 23.890625 -11.171875 L 69.90625 -11.171875 L 69.90625 0 L 12.359375 0 L 12.359375 -85.953125 Z M 68.234375 -85.953125 "/></g></g><g style="fill:#008645;fill-opacity:1;"><g transform="translate(568.631468, 126.332703)"><path style="stroke:none" d="M 63.125 -85.953125 L 63.125 -74.890625 L 40.0625 -74.890625 L 40.0625 0 L 28.53125 0 L 28.53125 -74.890625 L 6.0625 -74.890625 L 6.0625 -85.953125 Z M 63.125 -85.953125 "/></g></g><g style="fill:#008645;fill-opacity:1;"><g transform="translate(637.809537, 126.332703)"><path style="stroke:none" d="M 23.890625 -85.953125 L 23.890625 0 L 12.359375 0 L 12.359375 -85.953125 Z M 23.890625 -85.953125 "/></g></g></g></svg>